<svg xmlns="http://www.w3.org/2000/svg" viewBox="0 0 1024 1024"><path fill="#fcfbfc" stroke="#fcfbfc" d="M77.813.683c.721.289 1.584.253 1.916-.079.332-.332-.258-.568-1.312-.525-1.165.048-1.402.285-.604.604M91.25.735c2.612.206 6.888.206 9.5 0S101.225.36 96 .36s-7.362.169-4.75.375m222 .015c113.162.14 298.337.14 411.5 0C837.912.61 745.325.495 519 .495S200.087.61 313.25.75M939.813.683c.721.289 1.584.253 1.916-.079.332-.332-.258-.568-1.312-.525-1.165.048-1.402.285-.604.604M271 120.935c-13.445 4.105-23.366 16.729-31.445 40.013-18.225 52.525-24.344 131.301-15.938 205.202.607 5.338.365 6.222-4.363 16C206.331 408.869 195 453.55 195 477.788v4.415l-6.75-.655c-28.856-2.801-36.94-.305-37.389 11.545-.475 12.578 5.97 15.636 33.389 15.836 5.363.039 9.759.408 9.77.821.096 3.654 3.13 29.928 3.941 34.136 1.773 9.194 2.502 8.505-11.711 11.075-18.017 3.259-21.533 4.458-25.156 8.585-5.593 6.37-3.725 17.503 3.513 20.938 4.389 2.082 5.571 1.989 24.893-1.977 9.35-1.919 17.341-3.493 17.758-3.498.417-.005 1.521 1.904 2.452 4.241 14.446 36.241 41.196 68.702 75.54 91.67 4.262 2.85 7.75 5.392 7.75 5.648 0 .256-2.475 5.4-5.499 11.431-16.077 32.056-27.811 71.398-31.914 107.001-8.283 71.872 5.337 98.27 55.793 108.139 14.708 2.877 402.774 3.244 416.12.393 32.623-6.967 56.71-28.552 64.727-58.003 2.817-10.351 3.528-38.195 1.369-53.626-5.95-42.52-26.798-85.827-55.419-115.125-3.612-3.697-6.367-6.873-6.122-7.058 34.658-26.249 54.961-50.716 70.286-84.701 4.845-10.743 4.132-10.197 11.175-8.558 32.776 7.628 39.003 7.099 42.325-3.6 1.756-5.651 1.066-8.759-2.962-13.346-3.499-3.986-6.976-5.188-24.879-8.605-6.325-1.207-11.795-2.468-12.155-2.802-.36-.334.214-5.558 1.276-11.608 1.062-6.05 2.257-15.5 2.655-21l.724-10 15.86-.786c21.959-1.088 26.64-3.773 26.64-15.282 0-4.062-.486-5.152-3.75-8.405-4.679-4.664-8.267-5.257-25.25-4.175-14.713.937-13.999 1.149-14.005-4.161-.031-23.799-12.191-68.586-26.052-95.949L789 370.984l1.452-9.742c5.816-39.04 4.451-105.719-3.064-149.742-12.232-71.655-30.656-98.24-62.388-90.027-24.595 6.365-68.587 39.209-102.348 76.412-9.788 10.786-24.412 27.563-25.135 28.836-.07.122-6.805-1.128-14.968-2.778-26.762-5.408-37.759-6.352-74.549-6.4-36.516-.047-43.44.565-74.244 6.56l-15.745 3.064-2.755-3.323C357.889 154.665 298.737 112.467 271 120.935M334.5 188c.995 1.1 2.035 2 2.31 2 .275 0-.315-.9-1.31-2-.995-1.1-2.035-2-2.31-2-.275 0 .315.9 1.31 2m6.5 5.378c0 .207.788.995 1.75 1.75 1.586 1.243 1.621 1.208.378-.378-1.307-1.666-2.128-2.195-2.128-1.372m8 55c0 .207.788.995 1.75 1.75 1.586 1.243 1.621 1.208.378-.378-1.307-1.666-2.128-2.195-2.128-1.372m46 3c0 .207.788.995 1.75 1.75 1.586 1.243 1.621 1.208.378-.378-1.307-1.666-2.128-2.195-2.128-1.372m386.75 296.284c.688.278 1.813.278 2.5 0 .688-.277.125-.504-1.25-.504s-1.937.227-1.25.504M426 585.378c0 .207.788.995 1.75 1.75 1.586 1.243 1.621 1.208.378-.378-1.307-1.666-2.128-2.195-2.128-1.372m166.813 180.305c.721.289 1.584.253 1.916-.079.332-.332-.258-.568-1.312-.525-1.165.048-1.402.285-.604.604m79 30c.721.289 1.584.253 1.916-.079.332-.332-.258-.568-1.312-.525-1.165.048-1.402.285-.604.604M285.158 836c0 1.375.227 1.938.504 1.25.278-.687.278-1.812 0-2.5-.277-.687-.504-.125-.504 1.25m64.604 41.707c1.244.239 3.044.23 4-.02s-.062-.446-2.262-.435c-2.2.011-2.982.216-1.738.455" fill-rule="evenodd"/><path fill="#f9b23c" stroke="#f9b23c" d="M270.324 121.375c-18.73 6.145-30.611 28.663-40.693 77.125-9.98 47.974-12.572 116.993-6.153 163.834l1.348 9.835-3.86 7.165c-11.984 22.245-22.025 58.244-25.064 89.856l-1.22 12.691-17.106-.588c-23.186-.797-27.418 1.539-26.34 14.539.852 10.275 3.968 11.7 28.264 12.917l15 .751.821 11c.452 6.05 1.601 15.64 2.555 21.312.953 5.671 1.483 10.466 1.178 10.655-.305.188-6.855 1.543-14.555 3.009-22.408 4.267-25.999 6.622-25.999 17.048 0 7.321 2.303 10.748 8.44 12.561 3.344.988 26.004-2.602 37.673-5.969l3.113-.898 4.637 10.673c15.091 34.735 46.834 71.107 77.387 88.672 4.053 2.33 4.104 1.773-1.128 12.207-17.509 34.914-29.849 77.599-33.698 116.563-1.863 18.859-.743 51.474 2.049 59.667 7.817 22.938 26.805 36.643 57.485 41.493 14.85 2.347 400.841 2.387 411.915.042 33.754-7.147 57.572-28.247 65.668-58.176 3.011-11.13 3.75-35.51 1.575-51.97-5.587-42.278-25.667-84.834-54.58-115.674-4.015-4.282-7.127-7.915-6.918-8.075 32.288-24.498 52.127-47.782 67.492-79.211 3.514-7.189 6.39-13.601 6.39-14.25 0-1.556-.01-1.556 12.599 1.232 30.715 6.792 37.437 5.169 37.652-9.088.139-9.171-5.621-12.83-26.473-16.816-7.853-1.501-14.4-2.839-14.548-2.972-.149-.133.642-5.856 1.757-12.717 1.115-6.861 2.362-16.489 2.77-21.396l.743-8.922 15.5-.809c18.336-.957 23.221-2.582 25.716-8.554 2.265-5.421 1.203-11.681-2.632-15.509l-3.133-3.128H820.214l-.662-8c-2.535-30.632-11.199-62.654-24.19-89.41l-6.511-13.41 1.531-10.59c5.906-40.848 4.481-103.524-3.406-149.771-11.899-69.767-30.292-96.588-60.991-88.939-29.275 7.294-80.443 48.012-119.74 95.285-4.725 5.684-8.927 10.335-9.338 10.335-.411 0-5.845-1.092-12.077-2.426-49.643-10.632-115.896-9.867-161.496 1.863l-5.165 1.329-11.276-13.633c-14.73-17.808-42.051-44.985-58.393-58.083-34.988-28.045-61.942-40-78.176-34.675m7.885 33.191c-6.045 4.235-15.484 35.06-21.107 68.934-6.766 40.757-7.88 97.933-2.564 131.552 3.198 20.223 3.361 18.41-2.828 31.609-14.453 30.826-22.704 60.06-26.204 92.839l-.64 6 14.817 2.318c18.324 2.866 45.794 8.86 49.582 10.819 8.627 4.461 9.688 17.793 1.837 23.076-4.634 3.119-5.539 3.04-36.558-3.213-15.006-3.025-27.825-5.5-28.486-5.5-.871 0-1.025 1.584-.559 5.75.782 6.991 4.455 28.537 4.95 29.032.195.195 12.804-1.276 28.02-3.269 30.5-3.996 32.326-3.922 36.874 1.482 5.164 6.138 3.779 15.368-2.88 19.195-1.991 1.144-11.616 2.969-27.935 5.296-13.694 1.953-25.068 3.72-25.276 3.929-.795.794 8.023 16.941 14.363 26.303 22.481 33.191 53.006 56.839 91.438 70.839 16.921 6.164 20.404 9.442 19.743 18.58-.364 5.042-.911 6.386-3.816 9.384-6.4 6.603-11.274 6.49-28.909-.669-5.185-2.105-9.512-3.721-9.614-3.59-4.794 6.157-15.772 30.133-22.061 48.186-9.466 27.168-15.377 63.558-15.392 94.753-.014 30.955 10.971 38.329 58.859 39.511 22.605.557 23.344.515 22.778-1.318-5.454-17.659-9.758-64.45-6.763-73.525 2.029-6.146 6.368-9.369 12.614-9.369 10.792 0 14.87 6.195 15.913 24.177 1.261 21.724 3.577 37.135 7.905 52.587l2.175 7.764 61.322-.043 61.323-.043-6.358-6.221c-28.845-28.223-28.555-73.87.67-105.435 36.258-39.162 95.012-41.411 153.558-5.877 18.066 10.965 22.738 18.699 16.73 27.693-5.684 8.509-14.423 8.853-26.592 1.047-40.744-26.136-82.134-31.524-108.962-14.184-34.907 22.561-37.224 66.34-4.435 83.816l5.766 3.074 1.869-9.678c4.686-24.268 10.509-33.127 21.797-33.162 9.83-.031 14.065 7.41 10.681 18.766-4.262 14.306-4.749 16.38-5.404 23.032l-.677 6.864 4.864 1.411c14.313 4.155 31.667-1.837 40.14-13.858 5.9-8.371 9.351-11.303 14.045-11.933 10.887-1.46 18.56 11.673 13.665 23.389-.832 1.991-1.395 3.698-1.25 3.792 4.18 2.709 13.162 5.297 22.263 6.413 44.424 5.447 73.097-3.303 84.437-25.766 5.235-10.371 6.362-17.378 5.729-35.625-1.409-40.668-20.25-83.032-52.889-118.928l-5.39-5.927-14.444 6.073c-26.131 10.988-34.137 11.385-40.042 1.983-5.372-8.551-.465-19.196 10.669-23.148 44.694-15.86 76.141-39.363 99.594-74.437 6.415-9.594 15.385-25.902 14.649-26.635-.172-.172-10.213-1.711-22.313-3.42-29.358-4.148-30.813-4.514-34.48-8.691-4.846-5.52-3.866-15.162 1.92-18.87 4.403-2.822 6.29-2.734 42.936 2.01 11.207 1.45 20.718 2.267 21.135 1.814 1.683-1.83 6.428-34.324 5.011-34.324-1.55 0-30.234 5.306-43.022 7.959-16.408 3.403-19.939 3.641-23.872 1.607-10.543-5.452-7.662-22.033 4.43-25.494 5.885-1.685 25.767-5.526 44.942-8.682 9.35-1.539 17.141-2.885 17.314-2.991.673-.415-3.003-25.305-5.29-35.812-4.834-22.217-10.932-40.096-20.629-60.481-6.55-13.77-6.846-15.681-4.458-28.746 4.365-23.873 5.489-78.64 2.23-108.691-5.167-47.658-17.821-94.005-26.666-97.669-13.411-5.555-64.855 37.033-114.441 94.741-13.308 15.488-11.779 15.016-31.805 9.82-29.425-7.634-48.041-9.926-81.255-10-32.175-.073-48.665 2.025-82.692 10.52-19.07 4.761-17.964 5.152-31.347-11.081-33.862-41.074-77.288-80.015-102.568-91.974-7.248-3.429-9.502-3.688-12.684-1.46m-.819 2.812c-6.555 8.215-15.746 41.691-20.351 74.122-3.76 26.485-4.469 37.626-4.418 69.5.049 31.036.705 40.398 4.571 65.249 1.121 7.201 1.056 8.085-.911 12.5-19.153 42.995-24.973 62.695-29.774 100.781l-.634 5.029 13.813 2.149c20.6 3.203 47.388 9.19 50.958 11.388 8.84 5.444 8.993 20.498.253 24.957-5.226 2.666-8.602 2.479-26.715-1.481-8.625-1.885-19.957-4.155-25.182-5.044-5.225-.889-10.295-1.854-11.267-2.145-1.596-.478-1.706.035-1.129 5.294.806 7.337 4.139 26.4 4.719 26.979.239.239 6.676-.445 14.306-1.519 38.233-5.385 41.747-5.653 45.997-3.497 11.965 6.068 9.745 23.23-3.396 26.261-3.467.8-46.051 7.098-47.997 7.099-.607 0 5.378 11.009 10.389 19.11 22.33 36.099 53.834 61.343 95.814 76.775 16.876 6.204 19.952 9.291 19.304 19.378-.456 7.114-2.668 10.398-9.212 13.675-5.74 2.875-10.989 1.982-25.621-4.359l-7.911-3.428-2.443 4.174c-20.886 35.69-33.82 86.748-33.989 134.175-.101 28.28 4.519 34.775 28.436 39.98 10.546 2.296 50.006 3.409 49.985 1.41-.008-.764-.691-4.26-1.518-7.767-4.901-20.79-7.178-58.353-4.037-66.579 3.278-8.584 12.197-11.775 20.493-7.333 6.219 3.33 8.185 7.625 9.221 20.143 2.477 29.91 5.777 50.734 9.424 59.463l1.391 3.329 58.885-.323 58.885-.323-6.907-7.397c-21.596-23.127-24.684-59.809-7.457-88.603 24.458-40.883 73.747-56.231 126.635-39.431 18.855 5.989 49.944 23.058 55.669 30.564 5.783 7.582 3.597 17.86-4.705 22.117-7.981 4.093-11.229 3.248-28.645-7.45-34.536-21.214-72.003-25.989-97.813-12.465-30.289 15.87-40.46 52.715-20.542 74.412 4.237 4.616 15.607 12.701 16.373 11.642.154-.214 1.492-5.789 2.973-12.389 4.743-21.137 10.782-29.667 21.004-29.667 13.046 0 16.622 7.792 11.347 24.72-4.4 14.116-5.568 23.882-2.976 24.886 8.039 3.114 19.061 2.217 28.899-2.353 5.98-2.777 8.227-4.94 15.669-15.086 12.755-17.387 32.971-3.699 26.221 17.754-2.682 8.524 47.867 12.862 72.335 6.208 27.284-7.421 38.36-25.136 36.866-58.962-1.79-40.496-22.162-85.767-52.946-117.658l-4.98-5.159-8.124 3.525c-11.168 4.844-22.831 9.105-28.239 10.318-10.941 2.451-20.553-4.809-20.553-15.526 0-8.807 3.959-12.72 17.806-17.602 45.651-16.095 82.154-47.14 104.821-89.148 2.597-4.812 4.424-8.75 4.06-8.75-4.622 0-50.406-7.407-52.51-8.495-9.694-5.013-9.34-20.962.557-25.098 3.98-1.663 8.601-1.326 41.904 3.056 10.433 1.373 19.258 2.168 19.61 1.766.984-1.122 3.975-17.508 4.637-25.406.554-6.609.471-7.02-1.313-6.484-1.048.315-6.013 1.272-11.035 2.127-5.021.854-16.91 3.124-26.419 5.044-18.534 3.741-22.842 4.129-26.267 2.365-11.957-6.158-10.572-21.845 2.406-27.268 3.432-1.434 28.531-6.495 51.41-10.366l11-1.861-.299-4.44c-1.688-25.042-11.429-60.476-24.237-88.164-7.941-17.165-7.968-17.303-5.864-29.571 10.036-58.509 3.218-143.86-15.512-194.205-5.548-14.912-8.675-16.514-20.255-10.381-23.651 12.528-64.803 49.473-96.219 86.381-18.084 21.246-17.857 21.145-36.068 16.05-26.284-7.353-50.515-10.407-83.046-10.466-30.778-.056-47.295 2.059-81.301 10.413-20.438 5.021-18.864 5.669-35.853-14.777-29.967-36.063-73.252-74.676-98.416-87.793-8.338-4.346-10.605-4.354-14.04-.049m17.989 57.025c-8.168 3.643-12.517 16.345-15.782 46.097-3.52 32.077-3.04 62.102 1.065 66.712 5.789 6.501 12.053 5.453 21.305-3.563 13.758-13.406 36.745-29.956 52.894-38.082 9.814-4.938 12.139-7.536 12.139-13.563 0-6.256-2.16-9.095-20.247-26.609-26.714-25.868-42.079-35.137-51.374-30.992m412.621.251c-9.772 3.436-22.894 13.551-43.736 33.716-22.357 21.632-23.12 27.72-4.706 37.559 17.975 9.604 36.263 22.71 52.04 37.293 4.454 4.117 9.331 7.794 10.837 8.172 3.451.866 9.166-1.841 11.963-5.668 5.551-7.594 1.701-74.957-5.585-97.726-3.769-11.777-11.384-16.66-20.813-13.346m-409.927.158c-9.043 1.391-13.955 14.655-17.535 47.348-3.745 34.206-2.945 61.373 1.932 65.568 5.902 5.077 9.881 3.492 23.878-9.514 12.127-11.269 35.019-27.295 49.152-34.41 15.92-8.015 14.758-14.651-6.105-34.856-25.931-25.115-41.715-35.613-51.322-34.136m404.649 3.45c-15.342 8.598-50.57 40.949-53.778 49.384-3.026 7.96-.754 11.301 12.398 18.236 17.167 9.052 34.019 21.094 50.924 36.388 9.497 8.591 12.746 9.734 17.962 6.316 3.821-2.503 4.603-5.407 5.322-19.753 1.46-29.147-3.852-73.847-10.244-86.207-4.432-8.572-12.347-10.101-22.584-4.364M388.5 406.872c-36.119 9.442-38.727 65.991-3.653 79.183 29.07 10.934 56.739-26.629 42.026-57.055-8.16-16.874-23.853-25.924-38.373-22.128m222.429.437c-28.672 8.096-37.906 48.868-16.009 70.69 16.939 16.882 44.612 11.21 55.128-11.298 14.133-30.249-10.403-67.5-39.119-59.392m-223.833 1.146c-26.599 8.606-34.974 46.364-15.073 67.954 20.379 22.109 55.48 6.189 57.698-26.168 1.811-26.427-20.995-48.784-42.625-41.786m222.813.441c-37.318 11.94-32.894 73.844 5.562 77.813 13.755 1.42 29.065-8.402 34.617-22.209 3.931-9.778 3.549-25.6-.844-34.875-8.388-17.712-23.641-25.75-39.335-20.729M480.15 490.408c-22.327 5.638-18.45 29.923 7.53 47.167 5.982 3.972 6.25 4.931 3.736 13.397-7.222 24.318-33.486 28.436-48.852 7.658-7.327-9.908-14.091-12.376-21.68-7.909-10.139 5.968-9.137 19.736 2.324 31.949 20.975 22.349 54.045 24.536 77.848 5.148l5.534-4.507 4.455 3.838c24.902 21.452 63.971 17.299 83.584-8.885 6.588-8.796 7.763-14.758 4.311-21.888-4.599-9.501-16.578-10.546-23.245-2.029-10.72 13.694-18.742 18.444-29.309 17.353-13.033-1.345-22.791-11.463-24.801-25.716l-.637-4.517 7.65-5.471c23.653-16.916 27.459-38.948 7.779-45.03-5.943-1.837-49.454-2.269-56.227-.558m2.62.624c-15.196 2.559-20.705 13.805-13.138 26.82 3.413 5.872 13.754 16.118 19.901 19.72l4.704 2.757-.656 5.576c-.816 6.947-4.299 14.566-8.651 18.925-11.458 11.478-30.209 10.531-40.139-2.029-10.207-12.911-15.034-15.312-22.752-11.321-16.94 8.76-2.03 36.056 24.961 45.695 5.485 1.959 8.296 2.302 18 2.197 15.668-.171 24.534-3.382 36.397-13.185l4.794-3.962 6.29 4.761c19.303 14.61 41.818 16.939 62.596 6.475 12.691-6.391 24.882-20.946 24.913-29.743.053-15.044-17.505-18.941-25.961-5.763-16.208 25.258-49.588 17.191-53.611-12.955l-.601-4.5 6.342-4.148c22.158-14.493 28.735-34.8 13.771-42.52-6.642-3.426-42.897-5.202-57.16-2.8" fill-rule="evenodd"/><path fill="#f0e25c" stroke="#f0e25c" d="M273 120.954c-19.195 3.973-31.79 25.702-42.342 73.048-10.522 47.212-13.714 121.515-7.196 167.498l1.417 10-5.341 11c-12.88 26.528-20.811 57.089-24.087 92.819l-.625 6.819-17.203-.703c-15.131-.619-17.6-.498-20.492.997-5.583 2.887-7.661 10.969-4.665 18.141 2.378 5.691 7.073 7.12 26.145 7.96l16.111.71.667 9.629c.644 9.279 3.19 28.894 4.188 32.262.408 1.376-1.747 2.056-13.673 4.314-18.03 3.415-22.713 5.145-25.629 9.472-2.848 4.226-2.984 10.405-.325 14.766 4.024 6.599 8.396 6.908 30.854 2.179 8.083-1.702 15.296-3.156 16.029-3.23.764-.077 2.702 3.069 4.537 7.365 16.085 37.662 41.956 68.08 76.868 90.381l5.738 3.665-6.043 12.007c-15.134 30.066-26.188 65.901-31.602 102.447-2.841 19.175-2.613 60.533.387 70 7.674 24.22 26.806 38.175 58.953 43.001 12.084 1.814 398.23 2.334 407.329.549 36.51-7.165 60.618-27.918 69.176-59.55 2.973-10.989 3.215-42.812.441-58-7.658-41.922-26.362-79.268-55.419-110.653-3.058-3.303-5.101-6.295-4.6-6.735.496-.435 5.402-4.396 10.902-8.801 25.561-20.474 47.625-49.183 59.678-77.651 3.828-9.042 1.077-8.525 21.822-4.1 23.901 5.098 31.009 2.756 30.996-10.211-.009-9.98-4.711-12.75-29.543-17.406l-12.047-2.259 1.251-6.092c1.693-8.239 4.343-28.771 4.343-33.643 0-3.091.38-3.951 1.75-3.957 8.436-.039 28.464-1.366 31.298-2.074 10.862-2.714 13.253-17.947 3.762-23.977-3.122-1.984-4.257-2.073-19.979-1.57l-16.669.533-.657-7.702c-2.664-31.242-11.741-64.648-24.733-91.028l-6.071-12.326 1.644-11.674c5.454-38.729 4.426-99.638-2.4-142.174-14.434-89.949-37.009-112.691-84.93-85.558-29.512 16.71-66.209 48.976-95.721 84.162l-10.152 12.105-7.321-1.829c-10.266-2.564-28.92-5.654-42.665-7.068-15.937-1.64-64.904-1.651-78.156-.018-13.581 1.673-37.967 5.868-45 7.741L418.5 228l-2.5-2.82c-1.375-1.551-6.995-8.188-12.489-14.75-46.019-54.96-104.282-94.904-130.511-89.476m4.09 34.802c-7.287 7.287-17.985 47.266-22.544 84.244-5.003 40.586-4.525 95.016 1.085 123.396 1.866 9.445 1.603 11.068-3.538 21.799-13.04 27.219-20.934 53.473-25.538 84.933-2.504 17.111-3.869 15.197 12.695 17.784 16.412 2.563 44.738 8.644 49.478 10.621 8.164 3.406 10.006 18.135 2.853 22.822-4.646 3.044-7.887 2.79-35.84-2.816-15.192-3.046-28.377-5.539-29.298-5.539-2.033 0-1.561 6.919 1.679 24.588l2.034 11.089 5.172-.825c27.303-4.356 51.823-6.815 54.915-5.506 9.662 4.088 10.638 18.635 1.541 22.952-1.818.863-11.625 2.736-21.794 4.163-23.969 3.363-30.99 4.591-30.99 5.419 0 1.611 8.257 16.611 13.358 24.267 23.283 34.946 52.677 57.887 93.309 72.823 17.924 6.589 22.494 12.53 17.969 23.359-4.155 9.945-12.635 10.99-30.619 3.774-5.7-2.286-10.698-3.807-11.108-3.38-2.284 2.384-12.569 23.743-17.376 36.086-13.284 34.112-18.845 63.926-18.968 101.691l-.065 20 3 6c4.963 9.926 15.605 15.344 34.362 17.494 8.598.985 44.138 1.424 44.138.545 0-.254-.925-4.416-2.055-9.25-4.642-19.861-7.448-55.237-5.069-63.908 2.524-9.198 9.384-13.081 17.578-9.952 8.342 3.186 9.885 7.458 11.549 31.983 1.118 16.488 3.616 31.832 7.217 44.338l2.088 7.25 62.096-.011 62.096-.011-3.5-2.706c-27.537-21.289-33.523-64.378-13.352-96.106 29.227-45.97 88.558-56.613 148.446-26.628 26.821 13.428 35.292 21.262 33.473 30.956-2.069 11.029-14.836 14.069-26.928 6.413-49.683-31.459-93.795-33.645-121.653-6.028-20.823 20.643-22.509 49.107-3.977 67.121 4.676 4.546 15.738 11.778 16.479 10.774.111-.151.934-4.008 1.829-8.571C558.082 828.898 564.125 819 574.198 819c12.263 0 15.269 7.593 9.783 24.717-1.66 5.183-3.298 12.731-3.64 16.773l-.621 7.349 5.322 1.581c14.636 4.346 30.512-1.573 40.68-15.169 9.16-12.249 16.317-14.23 23.752-6.574 5.088 5.239 5.537 9.833 2.042 20.89-1.961 6.203 32.463 12.077 56.587 9.656 42.348-4.251 59.561-24.937 55.902-67.181-2.876-33.201-15.762-65.927-37.816-96.042-6.456-8.816-19.957-24-21.339-24-.529 0-5.719 2.071-11.532 4.602-26.853 11.693-37.169 12.26-42.491 2.336-5.532-10.315-.418-18.615 14.476-23.494 38.252-12.531 74.989-40.839 97.263-74.944 5.796-8.875 14.801-25.5 13.812-25.5-3.358 0-50.549-7.301-52.648-8.145-8.363-3.364-10.519-15.081-3.868-21.023 4.169-3.725 8.045-3.708 38.474.168 12.953 1.65 24.399 3 25.436 3 1.627 0 2.171-1.666 3.998-12.25 3.143-18.207 3.545-22.751 2.014-22.747-2.135.006-18.133 2.86-39.461 7.041-23.175 4.544-22.419 4.479-26.966 2.321-7.455-3.537-8.625-14.563-2.225-20.964 2.956-2.955 4.862-3.734 14.388-5.876 12.129-2.727 49.681-9.525 52.618-9.525 2.371 0 2.36-1.033-.19-18.407-4.397-29.946-14.876-62.502-28.355-88.093-1.959-3.718-1.998-7.867-.166-17.5 10.285-54.089 3.248-143.205-15.272-193.408-5.963-16.165-9.82-18.431-21.373-12.561-25.379 12.897-62.953 46.744-100.664 90.678-14.851 17.302-13.816 16.989-36.118 10.932-49.285-13.385-108.891-12.701-163.839 1.881-15.664 4.157-15.373 4.278-28.851-12.022-33.138-40.077-73.392-76.418-100.683-90.896-8.268-4.387-11.805-4.579-15.537-.848m15.511 62.289c-7.993 7.018-13.578 40.092-13.586 80.455-.004 22.704.702 27.429 4.468 29.897 5.144 3.37 8.877 2.215 16.906-5.23 16.387-15.194 35.74-29.175 52.867-38.191 10.635-5.599 12.744-7.711 12.744-12.764 0-6.061-7.895-15.666-26.723-32.513-26.393-23.617-38.201-29.095-46.676-21.654m410.732.079c-8.314 4.156-20.119 13.724-36.233 29.367-23.742 23.05-24.767 28.54-7.001 37.499 16.219 8.178 36.999 23.027 53.655 38.341 8.62 7.925 12 8.65 17.48 3.748l3.266-2.921-.021-29.329c-.021-30.022-.664-37.865-4.648-56.668-4.716-22.26-11.614-27.476-26.498-20.037m-319.1 191.495c-16.979 6.202-27.414 30.768-21.349 50.256 11.705 37.609 58.077 34.351 66.173-4.65 3.447-16.601-5.712-37.131-19.74-44.248-6.083-3.086-18.511-3.759-25.084-1.358m221.267 1.169c-31.697 15.374-26.998 67.761 6.75 75.254 29.105 6.461 50.749-29.641 35.587-59.361-8.123-15.922-27.375-23.149-42.337-15.893m-126.657 81.187c-10.869 3.283-15.226 13.205-10.312 23.48 2.509 5.247 13.552 16.848 20.581 21.621l5.633 3.825-.916 5.3c-2.861 16.564-13.45 26.549-28.329 26.713-10.202.113-16.709-3.912-25.717-15.907-5.424-7.223-11.981-9.013-18.484-5.047-17.475 10.654 2.995 40.074 32.44 46.625 15.721 3.498 35.246-1.628 47.414-12.448 5.547-4.931 5.442-4.917 9.299-1.202 22.278 21.458 62.24 18.784 81.818-5.475 11.626-14.405 8.493-29.444-6.138-29.456-4.688-.004-6.477 1.421-15.356 12.238-16.658 20.295-47.237 10.351-50.358-16.375l-.626-5.367 6.505-4.299c24.622-16.271 28.811-39.441 8.004-44.271-4.712-1.094-51.815-1.056-55.458.045" fill-rule="evenodd"/><path fill="#12120f" stroke="#12120f" d="M274.776 121.179c-19.45 2.523-31.015 20.323-41.742 64.246-12.523 51.278-16.456 124.122-9.457 175.159l1.657 12.085-2.471 3.915c-10.872 17.225-23.908 62.166-26.227 90.416-.338 4.125-.833 9.3-1.098 11.5l-.483 4-15.396-.877c-21.81-1.241-26.53.327-28.05 9.323-2.362 13.981 5.52 17.665 38.527 18.007l4.536.047 1.242 13.03c.683 7.167 1.918 16.904 2.743 21.638.826 4.734 1.325 8.783 1.11 8.999-.216.215-7.154 1.694-15.418 3.285-17.249 3.322-22.257 5.438-24.611 10.399-3.065 6.459-1.118 14.315 4.234 17.083 4.404 2.277 9.703 1.917 27.628-1.877 8.8-1.862 16.291-3.087 16.648-2.722.356.366 2.041 4.047 3.745 8.18 14.076 34.147 40.052 64.837 74.352 87.844l7.746 5.196-4.873 9.722c-16.452 32.824-27.46 68.566-32.752 106.335-2.216 15.82-2.539 55.372-.526 64.388 5.431 24.325 22.866 39.137 54.417 46.231 7.832 1.761 383.092 3.665 403.243 2.046 42.639-3.426 72.479-28.38 79.748-66.689 2.069-10.904 1.525-37.49-1.066-52.088-7.389-41.632-26.936-80.476-55.505-110.299l-5.555-5.798 6.156-4.702c27.519-21.018 48.824-47.013 62.722-76.53l6.5-13.804 3.5.499c1.925.275 8.9 1.651 15.5 3.059 19.777 4.218 26.023 3.355 29.106-4.024 4.958-11.866-1.954-18.413-23.606-22.359-17.949-3.271-17.208-3.057-16.541-4.795.995-2.593 4.398-25.18 5.122-33.997.406-4.947 1.126-8.28 1.798-8.324.617-.04 7.902-.401 16.19-.802 12.305-.594 15.697-1.091 18.5-2.71 9.268-5.353 8.775-18.869-.839-23.01-3.132-1.35-6.241-1.506-19.405-.978l-15.674.629-.579-5.778c-3.593-35.835-11.222-64.321-24.785-92.544l-6.136-12.767 1.687-12.884c10.21-77.953-3.048-186.192-27.129-221.484-12.158-17.818-29.492-20.523-53.658-8.372-30.713 15.442-66.513 46.02-101.22 86.457-11.312 13.178-11.316 13.182-14.573 12.242-29.008-8.368-91.557-12.079-127.258-7.549-12.725 1.614-40.889 6.596-46.133 8.16-1.782.532-3.483-.979-10.361-9.2-34.473-41.207-69.086-71.577-101.006-88.622-13.906-7.426-23.783-9.889-34.224-8.535m1.538 35.117c-6.93 7.892-17.337 46.856-21.689 81.204-4.176 32.962-4.742 90.75-1.115 114 3.481 22.313 3.446 22.773-2.757 36.147-13.272 28.619-21.002 55.503-25.11 87.336-.717 5.56-1.043 10.269-.724 10.466.32.197 6.431 1.317 13.581 2.489 20.198 3.312 46.626 9.119 50.565 11.111 11.73 5.931 7.824 23.951-5.192 23.951-3.867 0-41.797-6.925-57.262-10.454-2.325-.531-1.792 9.29 1.397 25.743 2.315 11.939 1.469 10.921 8.073 9.722 9.174-1.667 44.508-6.011 48.883-6.011 14.064 0 18.427 18.254 5.618 23.506-1.695.695-13.52 2.736-26.278 4.536-12.758 1.8-23.777 3.632-24.487 4.071-1.869 1.155 3.423 11.517 13.882 27.179 21.766 32.593 53.095 56.786 91.717 70.824 17.904 6.508 22.34 12.127 17.945 22.733-4.197 10.126-11.358 11.3-28.418 4.66-13.213-5.143-12.47-5.311-17.657 3.991-14.464 25.939-26.112 62.877-30.429 96.5-2.033 15.832-1.749 52.484.451 58.186 5.418 14.04 18.886 18.774 55.581 19.537l24.388.508-.51-2.366c-7.741-35.879-9.884-68.158-5.042-75.943 5.635-9.061 18.673-7.788 23.907 2.334 1.022 1.976 1.876 7.886 2.474 17.131 1.408 21.757 3.972 37.991 8.428 53.363l1.522 5.25h124.058l-6.056-5.607c-34.549-31.986-27.434-90.636 14.442-119.05 19.514-13.241 31.758-16.743 58.5-16.73l20.5.009 12.707 3.65c15.118 4.342 30.884 11.2 45.123 19.628 18.502 10.95 23.113 17.422 18.784 26.364-4.71 9.73-14.603 10.46-27.736 2.046-45.784-29.333-90.204-31.757-117.582-6.417-22.913 21.208-25.171 51.769-5.176 70.043 4.94 4.515 15.019 10.786 15.881 9.881.167-.174 1.27-4.927 2.453-10.561 5.729-27.303 13.456-36.29 26.512-30.835 7.055 2.948 7.926 8.526 3.492 22.37-1.704 5.319-3.308 12.941-3.646 17.323l-.604 7.825 2.896 1.214c4.52 1.895 18.028 1.634 24.396-.471 7.928-2.621 12.796-6.325 18.695-14.22 6.974-9.336 8.522-10.462 14.381-10.462 9.993 0 15.647 8.983 12.585 19.995-.913 3.286-1.661 6.186-1.661 6.443 0 3.591 26.215 8.562 45.151 8.562 56.415 0 77.311-28.203 65.2-88-6.372-31.464-25.846-68.466-48.888-92.892-7.933-8.409-6.611-8.229-19.378-2.645-14.034 6.138-24.537 9.538-29.449 9.533-10.549-.009-17.584-10.982-13.1-20.432 2.259-4.76 4.215-5.981 17.011-10.627 46.503-16.88 84.378-50.096 105.935-92.901 3.521-6.991 3.522-6.997 1.271-7.48-1.239-.265-12.603-1.901-25.253-3.635-12.65-1.734-24.453-3.749-26.228-4.477-6.589-2.702-9.207-11.758-5.268-18.219 3.796-6.226 5.397-6.315 38.827-2.156 13.568 1.688 25.569 3.15 26.669 3.25 2.222.201 5.614-13.688 7.028-28.772l.684-7.301-4.856.862c-2.671.473-13.406 2.488-23.856 4.477-37.908 7.214-37.965 7.216-42.936 1.309-4.572-5.434-2.696-15.141 3.742-19.359 3.083-2.02 17.617-5.279 44.944-10.078l21.75-3.82v-2.895c0-20.83-12.133-65.071-25.863-94.31-6.726-14.321-6.776-14.59-4.703-25.432 9.072-47.445 4.879-126.301-9.396-176.717C742.679 160.295 738.597 153 731.411 153c-14.676 0-67.288 44.459-105.911 89.5-7.074 8.25-13.793 15.777-14.931 16.728-3.076 2.568-10.048 2.193-22.089-1.188-49.737-13.966-103.886-13.729-164.306.72-18.861 4.51-16.618 5.478-33.085-14.276-25.042-30.038-59.051-61.958-84.589-79.392-19.039-12.998-24.978-14.728-30.186-8.796m19.186 59.649c-9.885 4.046-16 35.445-16 82.151 0 26.871.344 28.768 5.617 30.952 4.736 1.962 8.97.453 14.427-5.144 11.779-12.08 36.304-29.9 55.078-40.021 16.897-9.109 16.289-12.407-6.435-34.901-28.089-27.806-42.852-37.062-52.687-33.037m408 2.437c-8.957 4.538-21.191 14.445-38.029 30.792-21.625 20.996-22.691 26.738-6.471 34.854 15.973 7.992 38.041 23.683 53.37 37.949 10.042 9.344 13.87 10.24 19.533 4.572l2.597-2.599-.036-27.725c-.037-28.349-.838-38.3-4.567-56.681-4.78-23.569-11.312-28.805-26.397-21.162M385.882 409.381c-36.217 12.942-30.638 74.29 6.947 76.387 33.538 1.871 49.495-43.539 24.192-68.842-7.85-7.85-21.22-11.09-31.139-7.545m221.153.821c-19.381 7.441-28.494 35.155-18.504 56.273 11.075 23.409 41.062 26.832 56.06 6.4 22.358-30.457-4.542-75.347-37.556-62.673m-129.066 82.334c-9.579 2.953-13.374 11.877-9.436 22.189 2.167 5.674 15.85 19.95 22.197 23.157l4.229 2.138-.62 4.74c-3.982 30.434-36.528 38.995-53.459 14.063-5.892-8.677-11.676-10.826-18.818-6.996-7.649 4.102-8.992 13.95-3.141 23.032 18.197 28.247 58.206 32.896 83.834 9.743l3.938-3.558 2.318 2.468c9.056 9.64 29.951 17.33 42.989 15.822 21.109-2.442 35.139-10.745 44.242-26.184 10.385-17.613-9.582-32.597-21.11-15.842-18.427 26.783-50.958 18.955-55.445-13.342-.452-3.252-.183-3.711 3.359-5.75 10.987-6.324 21.482-18.094 24.044-26.966 2.533-8.777-3.082-17.01-13.06-19.15-7.707-1.653-50.361-1.321-56.061.436" fill-rule="evenodd"/></svg>